<?xml version="1.0" encoding="UTF-8" standalone="no"?>
<svg
   width="300px"
   height="261px"
   viewBox="0 0 170 261"
   version="1.1"
   id="svg1439"
   sodipodi:docname="robot.svg"
   inkscape:version="1.2.2 (b0a8486541, 2022-12-01)"
   xml:space="preserve"
   xmlns:inkscape="http://www.inkscape.org/namespaces/inkscape"
   xmlns:sodipodi="http://sodipodi.sourceforge.net/DTD/sodipodi-0.dtd"
   xmlns="http://www.w3.org/2000/svg"
   xmlns:svg="http://www.w3.org/2000/svg"><defs
     id="defs1443" /><sodipodi:namedview
     id="namedview1441"
     pagecolor="#ffffff"
     bordercolor="#000000"
     borderopacity="0.25"
     inkscape:showpageshadow="2"
     inkscape:pageopacity="0.0"
     inkscape:pagecheckerboard="0"
     inkscape:deskcolor="#d1d1d1"
     showgrid="false"
     inkscape:zoom="2.4089997"
     inkscape:cx="247.19804"
     inkscape:cy="142.38275"
     inkscape:window-width="1872"
     inkscape:window-height="1043"
     inkscape:window-x="0"
     inkscape:window-y="0"
     inkscape:window-maximized="1"
     inkscape:current-layer="svg1439" />
  <g
     id="robot">
    <g
       id="arms">
      <path id="left-arm" fill="none" stroke="black" d = "M 40 130 c -30,0 -30, 20 -30, 60" stroke-width="14"></path>
      <g id="left-palm">
      <rect x="3" y="181" width="16px" height="25px" fill="yellow" stroke="black"/>
      <circle cx="8" cy="187" r="2" fill="#8b8b18"/>
      <circle cx="14" cy="187" r="2" fill="#8b8b18"/>
      <circle cx="8" cy="194" r="2" fill="#8b8b18"/>
      <circle cx="14" cy="194" r="2" fill="#8b8b18"/>
      <circle cx="8" cy="201" r="2" fill="#8b8b18"/>
      <circle cx="14" cy="201" r="2" fill="#8b8b18"/>
      </g>
      <path id="right-arm" fill="none" stroke="black" d = "M 130 130 c 30,0 30, 20 30, 60" stroke-width="14"></path>
      <g id="right-palm">
      <rect x="152" y="181" width="16px" height="25px" fill="#008000" stroke="black"/>
      <circle cx="157" cy="187" r="2" fill="#034303"/>
      <circle cx="163" cy="187" r="2" fill="#034303"/>
      <circle cx="157" cy="194" r="2" fill="#034303"/>
      <circle cx="163" cy="194" r="2" fill="#034303"/>
      <circle cx="157" cy="201" r="2" fill="#034303"/>
      <circle cx="163" cy="201" r="2" fill="#034303"/>
      </g>
      <path
         d="M45.9271371,119.5462 L45.9271371,138.561018 C45.9271371,138.702392 45.9271371,138.848478 45.9271371,138.98514 C45.6864449,141.943534 43.1901739,144.18546 40.2633342,144.071859 C37.3364944,143.958257 35.0167272,141.529403 35.0000016,138.561018 L35.0000016,119.5462 C34.9983354,117.303429 36.3306432,115.280746 38.3750648,114.422246 C40.4194865,113.563746 42.7729198,114.038701 44.3368902,115.625425 L44.4670858,115.762087 C45.3158893,116.681246 45.8293796,117.866708 45.9224873,119.122078 C45.9178375,119.25874 45.9271371,119.404826 45.9271371,119.5462 Z"
         fill="#df1a8f"
         fill-rule="nonzero"
         id="path10295"
          /><path
         d="M133.950395,120.546578 L133.950395,139.566108 C133.955854,141.813032 132.622081,143.84092 130.573569,144.700281 C128.525057,145.559643 126.167288,145.080376 124.604207,143.486883 L124.455412,143.326659 C123.517352,142.301725 122.997311,140.954645 123.00001,139.556683 L123.00001,120.546578 C123.00001,117.483287 125.450297,115 128.472878,115 C131.495459,115 133.945745,117.483287 133.945745,120.546578 L133.950395,120.546578 Z"
         id="Shape"
         fill="#df1a8f"
         fill-rule="nonzero"/></g><g
       id="body"><rect
         id="Rectangle-path"
         fill="#62c3db"
         fill-rule="nonzero"
         x="74"
         y="103"
         width="18.7621243"
         height="11.093155"
         style="fill:#280b0b" /><rect
         stroke="black"
         id="rect10300"
         fill="#62c3db"
         fill-rule="nonzero"
         x="45"
         y="110"
         width="78.1731929"
         height="63.3827252"
         style="fill:white" />
  <path id="heart" fill="#aa0000" d="M 115.11 130.306 L 113.628 130.306 C 112.417 130.306 111.402 129.261 111.402 128.022 C 111.402 127.397 111.665 126.832 112.134 126.412 L 113.091 125.475 C 114.037 124.538 114.037 123.006 113.091 122.068 L 110.914 119.911 C 110.484 119.482 109.85 119.229 109.206 119.229 C 108.562 119.229 107.937 119.482 107.498 119.911 L 106.581 120.829 C 106.141 121.317 105.555 121.58 104.921 121.58 C 103.672 121.58 102.628 120.566 102.628 119.365 L 102.628 117.872 C 102.628 116.554 101.564 115.422 100.236 115.422 L 97.27 115.422 C 95.942 115.422 94.888 116.544 94.888 117.872 L 94.888 119.356 C 94.888 120.556 93.844 121.571 92.594 121.571 C 91.97 121.571 91.394 121.308 90.974 120.849 L 90.027 119.911 C 89.598 119.473 88.964 119.229 88.319 119.229 C 87.676 119.229 87.051 119.482 86.612 119.911 L 84.415 122.059 C 83.479 122.995 83.479 124.528 84.415 125.456 L 85.333 126.373 C 85.821 126.812 86.095 127.397 86.095 128.022 C 86.095 129.272 85.079 130.306 83.869 130.306 L 82.385 130.306 C 81.048 130.306 79.926 131.351 79.926 132.678 L 79.926 134.161 L 79.926 135.645 C 79.926 136.962 81.048 138.016 82.385 138.016 L 83.869 138.016 C 85.079 138.016 86.095 139.06 86.095 140.3 C 86.095 140.925 85.821 141.51 85.333 141.95 L 84.415 142.858 C 83.479 143.794 83.479 145.326 84.415 146.254 L 86.592 148.421 C 87.022 148.859 87.656 149.103 88.3 149.103 C 88.944 149.103 89.569 148.85 90.008 148.421 L 90.955 147.483 C 91.365 147.025 91.951 146.761 92.575 146.761 C 93.824 146.761 94.869 147.776 94.869 148.977 L 94.869 150.46 C 94.869 151.778 95.922 152.91 97.259 152.91 L 100.227 152.91 C 101.554 152.91 102.608 151.788 102.608 150.46 L 102.608 148.977 C 102.608 147.776 103.652 146.761 104.902 146.761 C 105.527 146.761 106.112 147.034 106.561 147.513 L 107.479 148.43 C 107.917 148.859 108.542 149.113 109.187 149.113 C 109.83 149.113 110.455 148.859 110.895 148.43 L 113.071 146.264 C 114.008 145.326 114.008 143.794 113.071 142.858 L 112.114 141.92 C 111.646 141.501 111.383 140.925 111.383 140.31 C 111.383 139.06 112.397 138.026 113.607 138.026 L 115.091 138.026 C 116.419 138.026 117.366 136.982 117.366 135.654 L 117.366 134.161 L 117.366 132.678 C 117.385 131.351 116.438 130.306 115.11 130.306 Z M 106.551 134.161 C 106.551 138.465 103.067 141.969 98.743 141.969 C 94.419 141.969 90.935 138.465 90.935 134.161 C 90.935 129.857 94.419 126.353 98.743 126.353 C 103.067 126.353 106.551 129.857 106.551 134.161 Z" style=""/>
         </g><g
       id="head"><rect
       stroke="black"
         id="rect10305"
         fill="#62c3db"
         fill-rule="nonzero"
         x="40.966824"
         y="43.746765"
         width="82.42186"
         height="59.173832"
         rx="9.9091682"
         style="fill:white;stroke-width:0.944243" /><rect
         id="Rectangle"
         fill="#4a4e4d"
         x="47.842884"
         y="53.082718"
         width="69.52462"
         height="40.844803"
         style="stroke-width:0.944243" /><ellipse
         id="eye-1"
         stroke="#979797"
         fill="white"
         cx="81.415169"
         cy="72.880409"
         rx="17.446598"
         ry="15.102089"
         style="stroke-width:1.29857" /></g><g
       id="hips"><polygon
         id="polygon10316"
         fill="black"
         fill-rule="nonzero"
         points="120.356804 179.338273 111.754591 179.338273 111.754591 185.676545 58.5929134 185.676545 58.5929134 179.338273 50 179.338273 50 173 120.356804 173" /><rect
         id="rect10318"
         fill="#62c3db"
         fill-rule="nonzero"
         x="45"
         y="185"
         width="81.3025386"
         height="7.92166253" /><rect
         id="rect10320"
         fill="#62c3db"
         fill-rule="nonzero"
         x="50"
         y="193"
         width="34.3949029"
         height="7.92166253" /><rect
         id="rect10322"
         fill="#62c3db"
         fill-rule="nonzero"
         x="86"
         y="193"
         width="34.3949029"
         height="7.92166253" /></g><g
       id="legs"><path
         id="right-leg"
         stroke="#62c3db"
         stroke-width="15px"
         fill="none"
         d="M 102 200 l0,0 0,48" />
         <path
         id="left-leg"
         fill="none"
         stroke="#62c3db"
         stroke-width="15px"
         d="M 65 200 l0,0 0, 48" />
         </g><g
       id="feet"
       transform="matrix(1,0,0,1.3455957,0,-85.707751)"><rect
         id="left-foot"
         fill="#F6CD61"
         fill-rule="nonzero"
         x="43"
         y="247.77702"
         width="29.707859"
         height="10.030431"
         style="fill:#aa0000;stroke-width:0.950894" /><rect
         id="right-foot"
         fill="#F6CD61"
         fill-rule="nonzero"
         x="94"
         y="248"
         width="29.707859"
         height="10.030431"
         style="fill:#0000ff;stroke-width:0.950894" /></g></g></svg>
